<?xml version="1.0" encoding="UTF-8" standalone="no"?>
<svg
   width="500"
   zoomAndPan="magnify"
   viewBox="0 0 375 215.99999"
   height="288"
   preserveAspectRatio="xMidYMid meet"
   version="1.0"
   id="svg92"
   sodipodi:docname="HWIcon.svg"
   inkscape:version="1.1.2 (0a00cf5339, 2022-02-04)"
   xmlns:inkscape="http://www.inkscape.org/namespaces/inkscape"
   xmlns:sodipodi="http://sodipodi.sourceforge.net/DTD/sodipodi-0.dtd"
   xmlns="http://www.w3.org/2000/svg"
   xmlns:svg="http://www.w3.org/2000/svg">
  <sodipodi:namedview
     id="namedview94"
     pagecolor="#ffffff"
     bordercolor="#666666"
     borderopacity="1.0"
     inkscape:pageshadow="2"
     inkscape:pageopacity="0.0"
     inkscape:pagecheckerboard="0"
     showgrid="false"
     inkscape:zoom="1.1433198"
     inkscape:cx="249.27408"
     inkscape:cy="244.90085"
     inkscape:window-width="1920"
     inkscape:window-height="1043"
     inkscape:window-x="1920"
     inkscape:window-y="0"
     inkscape:window-maximized="1"
     inkscape:current-layer="svg92" />
  <defs
     id="defs10">
    <g
       id="g2" />
    <clipPath
       id="03ee062cb1">
      <path
         d="M 187.5,143 H 217 v 27.32031 h -29.5 z m 0,0"
         clip-rule="nonzero"
         id="path4" />
    </clipPath>
    <clipPath
       id="1d71efaf7c">
      <path
         d="m 267,131.32422 h 15 V 146 h -15 z m 0,0"
         clip-rule="nonzero"
         id="path7" />
    </clipPath>
  </defs>
  <g
     id="g136"
     transform="matrix(1.593251,0,0,1.593251,-109.95408,-171.73245)">
    <path
       fill="#ffffff"
       d="m 269.47266,142.07422 c -4.97266,4.39453 -10.40235,9.25 -15.375,13.64453 0.004,0.004 0.004,0.008 0.008,0.0117 0.0508,0.0703 0.0977,0.14453 0.14062,0.23047 0.0469,0.082 0.0859,0.16797 0.11719,0.25 0.36719,0.8164 0.58594,1.69922 0.64844,2.58984 5.39453,-4.76953 11.24609,-9.99609 16.63672,-14.76172 -0.84766,-0.5039 -1.59375,-1.17578 -2.17578,-1.96484 z m 0,0"
       fill-opacity="1"
       fill-rule="nonzero"
       id="path12" />
    <path
       fill="#ffffff"
       d="m 228.81641,142.09766 c -0.0781,1.08593 -0.41407,2.13281 -0.94922,3.05468 4.51953,3.9961 9.49609,8.44922 14.01953,12.44141 0.23437,-0.99219 0.67578,-1.92969 1.3164,-2.72656 -4.64453,-4.10157 -9.74609,-8.66407 -14.38671,-12.76953 z m 0,0"
       fill-opacity="1"
       fill-rule="nonzero"
       id="path14" />
    <g
       clip-path="url(#03ee062cb1)"
       id="g18">
      <path
         fill="#ffffff"
         d="m 198.74219,157.82031 c -1.13672,-0.86328 -2.5586,-1.39453 -4.17578,-1.48047 -3.9336,-0.21484 -6.77344,3.35547 -6.96875,6.98438 -0.21485,3.94531 3.34375,6.79297 6.96875,6.98828 3.77343,0.20312 6.53515,-3.07813 6.92578,-6.55078 0.0312,-0.13281 0.0508,-0.27344 0.043,-0.4375 0.008,-0.15625 -0.0117,-0.29688 -0.043,-0.42578 -0.10938,-1.05078 -0.39844,-2.01563 -0.85547,-2.85938 5.29297,-4.67578 10.8125,-9.58203 16.10156,-14.25781 -0.61719,-0.80859 -1.0625,-1.75 -1.25391,-2.78125 -5.5039,4.86328 -11.23828,9.95703 -16.74218,14.82031 z m -8.23047,5.50391 c -0.28125,-5.23828 7.82422,-5.21094 8.10547,0 -0.28125,5.23437 -7.82422,5.23437 -8.10547,0 z m 0,0"
         fill-opacity="1"
         fill-rule="nonzero"
         id="path16" />
    </g>
    <path
       fill="#ffffff"
       d="m 229.01172,141.01172 c -0.008,-0.0547 -0.0195,-0.10938 -0.0273,-0.16406 -0.004,-0.0742 -0.0117,-0.14844 -0.0273,-0.22657 -0.66016,-3.51562 -3.90625,-5.99218 -7.46094,-5.6914 -3.61718,0.30468 -6.25,3.39062 -6.34765,6.94922 -0.0117,0.46484 0.0273,0.91406 0.10547,1.34765 0.19531,1.03125 0.63671,1.97656 1.25781,2.78516 1.37109,1.78906 3.60937,2.91406 5.9375,2.84375 2.42578,-0.0742 4.49609,-1.4961 5.64844,-3.47266 0.53515,-0.92578 0.87109,-1.96875 0.94531,-3.05469 0.0312,-0.43359 0.0234,-0.875 -0.0312,-1.3164 z m -6.5625,4.91797 c -2.41406,0.21875 -4.26563,-1.73047 -4.38281,-4.05078 -0.10547,-2.08594 1.60937,-3.66016 3.51562,-4.03516 2.23047,-0.44141 4.07813,1.37891 4.53125,3.39844 0.1875,2.3164 -1.20703,4.46875 -3.66406,4.6875 z m 0,0"
       fill-opacity="1"
       fill-rule="nonzero"
       id="path20" />
    <path
       fill="#ffffff"
       d="m 254.47656,155.73047 c -0.043,-0.0859 -0.0937,-0.16016 -0.14453,-0.23047 0,-0.004 -0.004,-0.008 -0.004,-0.0117 -2.02734,-3.20703 -6.04687,-4.23828 -9.41015,-2.45703 -0.77735,0.41406 -1.42578,0.96484 -1.94531,1.60937 -0.64063,0.79297 -1.08204,1.73047 -1.31641,2.72266 -0.41797,1.77734 -0.17969,3.72656 0.75,5.34766 1.83984,3.21875 5.88281,4.08593 9.10547,2.625 2.67578,-1.21485 3.92578,-4.02735 3.73047,-6.76563 -0.0625,-0.89062 -0.28125,-1.77344 -0.64844,-2.58984 -0.0312,-0.082 -0.0703,-0.16406 -0.11719,-0.25 z m -4.17187,6.9414 c -1.73047,1.02735 -4.07032,0.40235 -5.22266,-1.1914 -1.33594,-1.84766 -0.82812,-4.44922 1.01563,-5.74219 2.01953,-1.41797 4.67968,-0.56641 5.85937,1.46875 1.00781,2.02344 0.25781,4.32813 -1.65234,5.46484 z m 0,0"
       fill-opacity="1"
       fill-rule="nonzero"
       id="path22" />
    <g
       clip-path="url(#1d71efaf7c)"
       id="g26">
      <path
         fill="#ffffff"
         d="m 281.91016,137.99219 c -0.10157,-3.67188 -3.19141,-6.44141 -6.71875,-6.66016 -0.0781,-0.008 -0.15625,-0.0156 -0.24219,-0.0117 -0.082,-0.004 -0.16016,0.004 -0.23828,0.0117 -3.66407,0.21484 -6.41407,2.99219 -6.72266,6.66016 -0.13281,1.60547 0.36328,3.09765 1.25391,4.3125 0.58203,0.78906 1.32812,1.46093 2.17968,1.96484 1.23438,0.73047 2.6875,1.10938 4.14844,0.98828 3.71094,-0.3125 6.44141,-3.59375 6.33985,-7.26562 z m -6.42188,4.35156 c -2.59766,0.51172 -4.64844,-1.96094 -4.58203,-4.35156 0.0625,-2.13672 2.03125,-3.69141 4.04297,-3.7461 2.10547,0.0586 3.86328,1.60938 4.04297,3.7461 0.1875,2.21484 -1.42969,3.9375 -3.50391,4.35156 z m 0,0"
         fill-opacity="1"
         fill-rule="nonzero"
         id="path24" />
    </g>
    <g
       fill="#ffffff"
       fill-opacity="1"
       id="g34">
      <g
         transform="translate(64.491273,219.31274)"
         id="g32">
        <g
           id="g30">
          <path
             d="M 46.105469,-44.433594 H 34.515625 v 18.160156 H 16.742188 V -44.433594 H 5.152344 V 0 H 16.742188 V -17.257812 H 34.515625 V 0 h 11.589844 z m 0,0"
             id="path28" />
        </g>
      </g>
    </g>
    <g
       fill="#ffffff"
       fill-opacity="1"
       id="g42">
      <g
         transform="translate(110.21102,219.31274)"
         id="g40">
        <g
           id="g38">
          <path
             d="m 9.273438,-48.359375 c -3.605469,0 -5.988282,2.1875 -5.988282,5.664063 0,3.480468 2.382813,5.667968 5.988282,5.667968 3.605468,0 5.988281,-2.1875 5.988281,-5.667968 0,-3.476563 -2.382813,-5.664063 -5.988281,-5.664063 z M 15.070312,0 V -34.386719 H 3.476562 V 0 Z m 0,0"
             id="path36" />
        </g>
      </g>
    </g>
    <g
       fill="#ffffff"
       fill-opacity="1"
       id="g50">
      <g
         transform="translate(124.89262,219.31274)"
         id="g48">
        <g
           id="g46">
          <path
             d="m 24.277344,-35.289062 c -2.191406,0 -4.894532,0.964843 -6.761719,3.027343 l -2.445313,4.828125 v -6.953125 H 3.476562 V 0 h 11.59375 v -12.621094 c 0,-10.367187 3.152344,-13.585937 11.847657,-13.007812 v -9.464844 c -0.839844,-0.128906 -1.546875,-0.195312 -2.640625,-0.195312 z m 0,0"
             id="path44" />
        </g>
      </g>
    </g>
    <g
       fill="#ffffff"
       fill-opacity="1"
       id="g58">
      <g
         transform="translate(148.07431,219.31274)"
         id="g56">
        <g
           id="g54">
          <path
             d="m 37.15625,-17.644531 c 0,-8.886719 -5.796875,-17.644531 -17.257812,-17.644531 -11.460938,0 -18.351563,8.179687 -18.351563,18.222656 0,12.109375 7.855469,17.96875 17.707031,17.96875 8.824219,0 15.261719,-4.378906 17.257813,-12.171875 H 25.113281 c -0.449219,2.640625 -2.445312,4.316406 -5.730469,4.316406 -3.285156,0 -5.796874,-1.613281 -6.375,-7.34375 h 23.953126 c 0.128906,-1.15625 0.195312,-2.316406 0.195312,-3.347656 z m -17.835938,-9.789063 c 3.089844,0 5.085938,1.996094 5.730469,6.054688 h -11.65625 c 0.773438,-4.25 2.898438,-6.054688 5.925781,-6.054688 z m 0,0"
             id="path52" />
        </g>
      </g>
    </g>
    <g
       fill="#ffffff"
       fill-opacity="1"
       id="g66">
      <g
         transform="translate(182.91138,219.31274)"
         id="g64">
        <g
           id="g62">
          <path
             d="M 56.410156,-34.386719 H 43.917969 l -4.378907,24.664063 -4.378906,-24.40625 H 21.378906 L 17.257812,-9.789062 12.75,-34.386719 H 0 L 10.882812,0 H 23.824219 L 28.203125,-23.183594 32.582031,0 h 12.945313 z m 0,0"
             id="path60" />
        </g>
      </g>
    </g>
    <g
       fill="#ffffff"
       fill-opacity="1"
       id="g74">
      <g
         transform="translate(234.94178,219.31274)"
         id="g72">
        <g
           id="g70">
          <path
             d="m 37.15625,-17.644531 c 0,-8.886719 -5.796875,-17.644531 -17.257812,-17.644531 -11.460938,0 -18.351563,8.179687 -18.351563,18.222656 0,12.109375 7.855469,17.96875 17.707031,17.96875 8.824219,0 15.261719,-4.378906 17.257813,-12.171875 H 25.113281 c -0.449219,2.640625 -2.445312,4.316406 -5.730469,4.316406 -3.285156,0 -5.796874,-1.613281 -6.375,-7.34375 h 23.953126 c 0.128906,-1.15625 0.195312,-2.316406 0.195312,-3.347656 z m -17.835938,-9.789063 c 3.089844,0 5.085938,1.996094 5.730469,6.054688 h -11.65625 c 0.773438,-4.25 2.898438,-6.054688 5.925781,-6.054688 z m 0,0"
             id="path68" />
        </g>
      </g>
    </g>
    <g
       fill="#ffffff"
       fill-opacity="1"
       id="g82">
      <g
         transform="translate(269.77886,219.31274)"
         id="g80">
        <g
           id="g78">
          <path
             d="M 14.8125,-47.332031 H 3.21875 v 35.160156 c 0,2.578125 0,4.316406 0.128906,6.117187 0.257813,4.574219 3.285156,6.699219 8.628906,6.699219 2.578126,0 4.636719,-0.128906 6.761719,-0.324219 V -7.535156 C 15.710938,-7.40625 15.132812,-7.855469 14.941406,-9.207031 14.8125,-10.046875 14.8125,-10.753906 14.8125,-12.363281 Z m 0,0"
             id="path76" />
        </g>
      </g>
    </g>
    <g
       fill="#ffffff"
       fill-opacity="1"
       id="g90">
      <g
         transform="translate(285.55518,219.31274)"
         id="g88">
        <g
           id="g86">
          <path
             d="M 14.8125,-47.332031 H 3.21875 v 35.160156 c 0,2.578125 0,4.316406 0.128906,6.117187 0.257813,4.574219 3.285156,6.699219 8.628906,6.699219 2.578126,0 4.636719,-0.128906 6.761719,-0.324219 V -7.535156 C 15.710938,-7.40625 15.132812,-7.855469 14.941406,-9.207031 14.8125,-10.046875 14.8125,-10.753906 14.8125,-12.363281 Z m 0,0"
             id="path84" />
        </g>
      </g>
    </g>
  </g>
</svg>
