<svg xmlns="http://www.w3.org/2000/svg" xmlns:xlink="http://www.w3.org/1999/xlink" width="500" zoomAndPan="magnify" viewBox="0 0 375 225" height="300" preserveAspectRatio="xMidYMid meet" version="1.0"><defs><g/><clipPath id="c910b7a953"><path d="M 181.4375 73.132812 L 233 73.132812 L 233 120.863281 L 181.4375 120.863281 Z M 181.4375 73.132812 " clip-rule="nonzero"/></clipPath><clipPath id="40ba008745"><path d="M 322 52.730469 L 346.753906 52.730469 L 346.753906 78 L 322 78 Z M 322 52.730469 " clip-rule="nonzero"/></clipPath></defs><path fill="#ffffff" d="M 324.839844 71.515625 C 316.140625 79.191406 306.644531 87.675781 297.945312 95.351562 C 297.949219 95.359375 297.949219 95.367188 297.957031 95.375 C 298.046875 95.496094 298.128906 95.625 298.203125 95.777344 C 298.285156 95.917969 298.355469 96.070312 298.410156 96.210938 C 299.050781 97.640625 299.433594 99.179688 299.542969 100.738281 C 308.980469 92.40625 319.21875 83.273438 328.648438 74.945312 C 327.164062 74.066406 325.859375 72.890625 324.839844 71.515625 Z M 324.839844 71.515625 " fill-opacity="1" fill-rule="nonzero"/><path fill="#ffffff" d="M 253.71875 71.554688 C 253.582031 73.453125 252.992188 75.28125 252.054688 76.890625 C 259.964844 83.875 268.667969 91.652344 276.582031 98.628906 C 276.992188 96.894531 277.765625 95.257812 278.886719 93.863281 C 270.761719 86.699219 261.835938 78.726562 253.71875 71.554688 Z M 253.71875 71.554688 " fill-opacity="1" fill-rule="nonzero"/><g clip-path="url(#c910b7a953)"><path fill="#ffffff" d="M 201.105469 99.023438 C 199.117188 97.515625 196.628906 96.589844 193.800781 96.4375 C 186.917969 96.0625 181.949219 102.300781 181.609375 108.640625 C 181.234375 115.535156 187.457031 120.507812 193.800781 120.851562 C 200.402344 121.203125 205.234375 115.472656 205.917969 109.40625 C 205.972656 109.171875 206.003906 108.925781 205.992188 108.640625 C 206.003906 108.367188 205.972656 108.121094 205.917969 107.898438 C 205.726562 106.0625 205.21875 104.375 204.417969 102.902344 C 213.679688 94.730469 223.335938 86.160156 232.585938 77.992188 C 231.507812 76.578125 230.730469 74.933594 230.394531 73.132812 C 220.765625 81.628906 210.734375 90.527344 201.105469 99.023438 Z M 186.707031 108.640625 C 186.214844 99.488281 200.394531 99.535156 200.886719 108.640625 C 200.394531 117.785156 187.199219 117.785156 186.707031 108.640625 Z M 186.707031 108.640625 " fill-opacity="1" fill-rule="nonzero"/></g><path fill="#ffffff" d="M 254.058594 69.65625 C 254.042969 69.5625 254.023438 69.464844 254.011719 69.371094 C 254.003906 69.242188 253.992188 69.113281 253.964844 68.976562 C 252.808594 62.832031 247.128906 58.507812 240.910156 59.03125 C 234.582031 59.5625 229.976562 64.957031 229.804688 71.171875 C 229.785156 71.984375 229.855469 72.769531 229.992188 73.527344 C 230.332031 75.328125 231.105469 76.980469 232.191406 78.394531 C 234.589844 81.519531 238.503906 83.484375 242.578125 83.363281 C 246.820312 83.230469 250.445312 80.746094 252.460938 77.292969 C 253.394531 75.675781 253.984375 73.855469 254.113281 71.957031 C 254.167969 71.199219 254.15625 70.429688 254.058594 69.65625 Z M 242.578125 78.25 C 238.355469 78.632812 235.117188 75.226562 234.910156 71.171875 C 234.726562 67.527344 237.726562 64.777344 241.0625 64.121094 C 244.964844 63.351562 248.195312 66.53125 248.988281 70.058594 C 249.316406 74.105469 246.875 77.867188 242.578125 78.25 Z M 242.578125 78.25 " fill-opacity="1" fill-rule="nonzero"/><path fill="#ffffff" d="M 298.605469 95.375 C 298.53125 95.222656 298.441406 95.09375 298.355469 94.96875 C 298.355469 94.964844 298.347656 94.957031 298.347656 94.949219 C 294.800781 89.347656 287.769531 87.546875 281.886719 90.65625 C 280.523438 91.378906 279.390625 92.34375 278.480469 93.46875 C 277.359375 94.855469 276.589844 96.492188 276.179688 98.226562 C 275.449219 101.332031 275.863281 104.738281 277.492188 107.570312 C 280.710938 113.191406 287.78125 114.707031 293.417969 112.15625 C 298.101562 110.03125 300.289062 105.117188 299.945312 100.335938 C 299.835938 98.777344 299.453125 97.238281 298.8125 95.808594 C 298.757812 95.667969 298.6875 95.523438 298.605469 95.375 Z M 291.308594 107.5 C 288.28125 109.296875 284.1875 108.203125 282.171875 105.417969 C 279.835938 102.191406 280.722656 97.644531 283.949219 95.386719 C 287.480469 92.910156 292.136719 94.398438 294.199219 97.953125 C 295.960938 101.488281 294.648438 105.515625 291.308594 107.5 Z M 291.308594 107.5 " fill-opacity="1" fill-rule="nonzero"/><g clip-path="url(#40ba008745)"><path fill="#ffffff" d="M 346.597656 64.382812 C 346.421875 57.96875 341.015625 53.128906 334.84375 52.746094 C 334.707031 52.730469 334.570312 52.71875 334.421875 52.726562 C 334.277344 52.71875 334.140625 52.734375 334.003906 52.746094 C 327.59375 53.121094 322.785156 57.972656 322.242188 64.382812 C 322.011719 67.1875 322.878906 69.792969 324.4375 71.917969 C 325.457031 73.296875 326.761719 74.46875 328.25 75.347656 C 330.410156 76.625 332.953125 77.289062 335.507812 77.074219 C 342 76.53125 346.777344 70.796875 346.597656 64.382812 Z M 335.363281 71.984375 C 330.820312 72.878906 327.230469 68.558594 327.347656 64.382812 C 327.457031 60.648438 330.902344 57.933594 334.421875 57.835938 C 338.105469 57.941406 341.179688 60.648438 341.492188 64.382812 C 341.820312 68.25 338.992188 71.261719 335.363281 71.984375 Z M 335.363281 71.984375 " fill-opacity="1" fill-rule="nonzero"/></g><g fill="#ffffff" fill-opacity="1"><g transform="translate(16.593749, 175.230624)"><g><path d="M 16.378906 0 L 16.378906 -28.300781 L 46.820312 -28.300781 L 46.820312 0 L 56.941406 0 L 56.941406 -65.429688 L 46.820312 -65.429688 L 46.820312 -37.390625 L 16.378906 -37.390625 L 16.378906 -65.429688 L 6.261719 -65.429688 L 6.261719 0 Z M 16.378906 0 "/></g></g></g><g fill="#ffffff" fill-opacity="1"><g transform="translate(79.951534, 175.230624)"><g><path d="M 10.375 -54.453125 C 13.890625 -54.453125 16.722656 -57.027344 16.722656 -60.457031 C 16.722656 -63.886719 13.890625 -66.460938 10.375 -66.460938 C 6.945312 -66.460938 4.03125 -63.886719 4.03125 -60.457031 C 4.03125 -57.027344 6.945312 -54.453125 10.375 -54.453125 Z M 15.09375 0 L 15.09375 -47.765625 L 5.660156 -47.765625 L 5.660156 0 Z M 15.09375 0 "/></g></g></g><g fill="#ffffff" fill-opacity="1"><g transform="translate(100.699283, 175.230624)"><g><path d="M 15.09375 0 L 15.09375 -23.582031 C 15.09375 -29.757812 16.464844 -33.703125 19.125 -36.273438 C 21.179688 -38.332031 24.097656 -39.449219 28.042969 -39.449219 L 30.613281 -39.449219 L 30.613281 -48.707031 L 29.671875 -48.707031 C 23.667969 -48.707031 19.125 -46.820312 15.09375 -41.675781 L 15.09375 -47.765625 L 5.660156 -47.765625 L 5.660156 0 Z M 15.09375 0 "/></g></g></g><g fill="#ffffff" fill-opacity="1"><g transform="translate(133.021173, 175.230624)"><g><path d="M 27.441406 0.941406 C 39.789062 0.941406 47.078125 -6.601562 49.996094 -15.691406 L 40.132812 -15.691406 C 38.332031 -11.148438 33.957031 -7.289062 27.613281 -7.289062 C 21.78125 -7.289062 16.980469 -10.976562 14.664062 -16.808594 C 13.976562 -18.265625 13.464844 -20.238281 13.292969 -21.953125 L 50.765625 -21.953125 L 50.765625 -24.527344 C 50.765625 -40.820312 39.363281 -48.707031 27.183594 -48.707031 C 11.664062 -48.707031 3.6875 -36.359375 3.6875 -23.667969 C 3.6875 -9.605469 13.292969 0.941406 27.441406 0.941406 Z M 13.890625 -29.585938 C 14.148438 -30.871094 14.578125 -32.585938 15.523438 -34.128906 C 17.921875 -38.503906 22.210938 -40.90625 27.527344 -40.90625 C 32.585938 -40.90625 37.21875 -38.589844 39.53125 -34.128906 C 40.390625 -32.671875 40.820312 -30.957031 40.992188 -29.585938 Z M 13.890625 -29.585938 "/></g></g></g><g fill="#ffffff" fill-opacity="1"><g transform="translate(187.46257, 175.230624)"><g><path d="M 24.867188 0 L 35.675781 -34.730469 L 46.222656 0 L 55.054688 0 L 69.632812 -47.765625 L 59.515625 -47.765625 L 50.339844 -14.40625 L 39.789062 -47.765625 L 31.472656 -47.765625 L 20.925781 -14.40625 L 11.835938 -47.765625 L 1.714844 -47.765625 L 16.035156 0 Z M 24.867188 0 "/></g></g></g><g fill="#ffffff" fill-opacity="1"><g transform="translate(258.79366, 175.230624)"><g><path d="M 19.292969 0.941406 C 23.582031 0.941406 27.355469 0.171875 30.441406 -1.800781 C 32.328125 -3 34.042969 -4.714844 35.417969 -7.03125 L 35.417969 0 L 44.851562 0 L 44.851562 -26.5 C 44.851562 -31.386719 44.851562 -38.933594 39.617188 -43.820312 C 36.101562 -47.078125 30.871094 -48.707031 25.382812 -48.707031 C 16.035156 -48.707031 7.203125 -43.476562 5.574219 -32.929688 L 14.921875 -32.929688 C 15.949219 -37.902344 20.152344 -40.992188 25.296875 -40.992188 C 28.46875 -40.992188 31.042969 -39.960938 32.84375 -38.160156 C 34.558594 -36.359375 35.417969 -33.875 35.503906 -30.527344 L 19.894531 -27.527344 C 15.4375 -26.667969 11.664062 -25.382812 8.832031 -23.324219 C 5.574219 -20.925781 3.6875 -17.492188 3.6875 -12.949219 C 3.6875 -4.203125 10.035156 0.941406 19.292969 0.941406 Z M 21.179688 -6.859375 C 16.378906 -6.859375 13.121094 -9.175781 13.121094 -13.207031 C 13.121094 -15.007812 13.804688 -16.464844 14.921875 -17.578125 C 16.464844 -19.039062 18.695312 -19.980469 22.125 -20.667969 L 35.589844 -23.324219 C 35.589844 -16.207031 33.957031 -11.40625 28.042969 -8.402344 C 25.984375 -7.375 23.753906 -6.859375 21.179688 -6.859375 Z M 21.179688 -6.859375 "/></g></g></g><g fill="#ffffff" fill-opacity="1"><g transform="translate(308.86259, 175.230624)"><g><path d="M 22.382812 0 L 22.382812 -7.976562 L 19.722656 -7.976562 C 15.691406 -7.976562 14.921875 -9.777344 14.921875 -13.550781 L 14.921875 -65.429688 L 5.488281 -65.429688 L 5.488281 -11.234375 C 5.488281 -2.746094 9.605469 0 16.722656 0 Z M 22.382812 0 "/></g></g></g><g fill="#ffffff" fill-opacity="1"><g transform="translate(333.639849, 175.230624)"><g><path d="M 22.382812 0 L 22.382812 -7.976562 L 19.722656 -7.976562 C 15.691406 -7.976562 14.921875 -9.777344 14.921875 -13.550781 L 14.921875 -65.429688 L 5.488281 -65.429688 L 5.488281 -11.234375 C 5.488281 -2.746094 9.605469 0 16.722656 0 Z M 22.382812 0 "/></g></g></g></svg>