<svg xmlns="http://www.w3.org/2000/svg" xmlns:xlink="http://www.w3.org/1999/xlink" width="500" zoomAndPan="magnify" viewBox="0 0 375 374.999991" height="500" preserveAspectRatio="xMidYMid meet" version="1.0"><defs><clipPath id="6e8c273d4b"><path d="M 283 75 L 337 75 L 337 181 L 283 181 Z M 283 75 " clip-rule="nonzero"/></clipPath><clipPath id="99e6b03acd"><path d="M -63.722656 204.03125 L 355.628906 1.378906 L 438.839844 173.578125 L 19.492188 376.226562 Z M -63.722656 204.03125 " clip-rule="nonzero"/></clipPath><clipPath id="ec50a4514d"><path d="M -63.738281 204 L 355.613281 1.351562 L 438.828125 173.546875 L 19.476562 376.199219 Z M -63.738281 204 " clip-rule="nonzero"/></clipPath><clipPath id="b5a2cb181a"><path d="M -63.738281 204 L 355.613281 1.351562 L 438.828125 173.546875 L 19.476562 376.199219 Z M -63.738281 204 " clip-rule="nonzero"/></clipPath><clipPath id="bf04cb87d5"><path d="M 142 163 L 234 163 L 234 204 L 142 204 Z M 142 163 " clip-rule="nonzero"/></clipPath><clipPath id="eaa9ff20ce"><path d="M -63.722656 204.03125 L 355.628906 1.378906 L 438.839844 173.578125 L 19.492188 376.226562 Z M -63.722656 204.03125 " clip-rule="nonzero"/></clipPath><clipPath id="700f5adeb3"><path d="M -63.738281 204 L 355.613281 1.351562 L 438.828125 173.546875 L 19.476562 376.199219 Z M -63.738281 204 " clip-rule="nonzero"/></clipPath><clipPath id="9f8b2a7f71"><path d="M -63.738281 204 L 355.613281 1.351562 L 438.828125 173.546875 L 19.476562 376.199219 Z M -63.738281 204 " clip-rule="nonzero"/></clipPath><clipPath id="703443626b"><path d="M 2 195 L 97 195 L 97 364 L 2 364 Z M 2 195 " clip-rule="nonzero"/></clipPath><clipPath id="1170a1ec77"><path d="M -63.722656 204.03125 L 355.628906 1.378906 L 438.839844 173.578125 L 19.492188 376.226562 Z M -63.722656 204.03125 " clip-rule="nonzero"/></clipPath><clipPath id="24344e6651"><path d="M -63.738281 204 L 355.613281 1.351562 L 438.828125 173.546875 L 19.476562 376.199219 Z M -63.738281 204 " clip-rule="nonzero"/></clipPath><clipPath id="1fad0b6912"><path d="M -63.738281 204 L 355.613281 1.351562 L 438.828125 173.546875 L 19.476562 376.199219 Z M -63.738281 204 " clip-rule="nonzero"/></clipPath><clipPath id="7904b88d58"><path d="M 78 142 L 147 142 L 147 211 L 78 211 Z M 78 142 " clip-rule="nonzero"/></clipPath><clipPath id="48050153aa"><path d="M -63.722656 204.03125 L 355.628906 1.378906 L 438.839844 173.578125 L 19.492188 376.226562 Z M -63.722656 204.03125 " clip-rule="nonzero"/></clipPath><clipPath id="e700323a4b"><path d="M -63.738281 204 L 355.613281 1.351562 L 438.828125 173.546875 L 19.476562 376.199219 Z M -63.738281 204 " clip-rule="nonzero"/></clipPath><clipPath id="da9b8593c7"><path d="M -63.738281 204 L 355.613281 1.351562 L 438.828125 173.546875 L 19.476562 376.199219 Z M -63.738281 204 " clip-rule="nonzero"/></clipPath><clipPath id="9f25136df0"><path d="M 231 162 L 300 162 L 300 231 L 231 231 Z M 231 162 " clip-rule="nonzero"/></clipPath><clipPath id="e588eeccf6"><path d="M -63.722656 204.03125 L 355.628906 1.378906 L 438.839844 173.578125 L 19.492188 376.226562 Z M -63.722656 204.03125 " clip-rule="nonzero"/></clipPath><clipPath id="c11ded5f43"><path d="M -63.738281 204 L 355.613281 1.351562 L 438.828125 173.546875 L 19.476562 376.199219 Z M -63.738281 204 " clip-rule="nonzero"/></clipPath><clipPath id="fdb6a5fd88"><path d="M -63.738281 204 L 355.613281 1.351562 L 438.828125 173.546875 L 19.476562 376.199219 Z M -63.738281 204 " clip-rule="nonzero"/></clipPath><clipPath id="84e79b221c"><path d="M 305 13 L 374 13 L 374 82 L 305 82 Z M 305 13 " clip-rule="nonzero"/></clipPath><clipPath id="c91bd2fa5f"><path d="M -63.722656 204.03125 L 355.628906 1.378906 L 438.839844 173.578125 L 19.492188 376.226562 Z M -63.722656 204.03125 " clip-rule="nonzero"/></clipPath><clipPath id="0b36cc4b00"><path d="M -63.738281 204 L 355.613281 1.351562 L 438.828125 173.546875 L 19.476562 376.199219 Z M -63.738281 204 " clip-rule="nonzero"/></clipPath><clipPath id="f6f6ce8897"><path d="M -63.738281 204 L 355.613281 1.351562 L 438.828125 173.546875 L 19.476562 376.199219 Z M -63.738281 204 " clip-rule="nonzero"/></clipPath></defs><rect x="-37.5" width="450" fill="#ffffff" y="-37.499999" height="449.999989" fill-opacity="1"/><rect x="-37.5" width="450" fill="#ffffff" y="-37.499999" height="449.999989" fill-opacity="1"/><rect x="-37.5" width="450" fill="#38f094" y="-37.499999" height="449.999989" fill-opacity="1"/><g clip-path="url(#6e8c273d4b)"><g clip-path="url(#99e6b03acd)"><g clip-path="url(#ec50a4514d)"><g clip-path="url(#b5a2cb181a)"><path fill="#ffffff" d="M 322.953125 75.703125 C 310.269531 105.769531 296.53125 138.847656 283.839844 168.914062 C 283.863281 168.925781 283.882812 168.941406 283.902344 168.953125 C 284.277344 169.152344 284.652344 169.382812 285.023438 169.671875 C 285.417969 169.933594 285.761719 170.222656 286.078125 170.527344 C 289.460938 173.34375 292.296875 176.773438 294.476562 180.566406 C 308.234375 147.949219 323.050781 112.324219 336.8125 79.710938 C 331.96875 79.308594 327.21875 77.953125 322.953125 75.703125 Z M 322.953125 75.703125 " fill-opacity="1" fill-rule="nonzero"/></g></g></g></g><g clip-path="url(#bf04cb87d5)"><g clip-path="url(#eaa9ff20ce)"><g clip-path="url(#700f5adeb3)"><g clip-path="url(#9f8b2a7f71)"><path fill="#ffffff" d="M 142.601562 163 C 144.578125 167.957031 145.324219 173.285156 144.914062 178.511719 C 173.492188 186.457031 205.082031 195.445312 233.660156 203.390625 C 232.585938 198.507812 232.542969 193.421875 233.691406 188.527344 C 204.332031 180.367188 171.960938 171.164062 142.601562 163 Z M 142.601562 163 " fill-opacity="1" fill-rule="nonzero"/></g></g></g></g><g clip-path="url(#703443626b)"><g clip-path="url(#1170a1ec77)"><g clip-path="url(#24344e6651)"><g clip-path="url(#1fad0b6912)"><path fill="#ffffff" d="M 42.707031 296.910156 C 35.824219 295.53125 28.375 296.234375 21.011719 299.316406 C 3.113281 306.808594 -1.886719 328.652344 4.996094 345.101562 C 12.46875 362.964844 34.335938 367.90625 50.824219 361.003906 C 68.007812 353.8125 73.265625 333.40625 67.578125 317.234375 C 67.4375 316.578125 67.222656 315.914062 66.839844 315.21875 C 66.542969 314.5 66.15625 313.925781 65.742188 313.414062 C 63.019531 309.019531 59.671875 305.382812 55.847656 302.628906 C 69.351562 270.640625 83.375 237.140625 96.875 205.148438 C 92.402344 202.910156 88.429688 199.695312 85.375 195.558594 C 71.324219 228.839844 56.753906 263.628906 42.707031 296.910156 Z M 17.941406 338.84375 C 5.515625 316.320312 41.53125 299.0625 53.894531 321.46875 C 63.816406 345.1875 30.359375 361.355469 17.941406 338.84375 Z M 17.941406 338.84375 " fill-opacity="1" fill-rule="nonzero"/></g></g></g></g><g clip-path="url(#7904b88d58)"><g clip-path="url(#48050153aa)"><g clip-path="url(#e700323a4b)"><g clip-path="url(#da9b8593c7)"><path fill="#ffffff" d="M 141.144531 157.769531 C 140.996094 157.542969 140.84375 157.328125 140.683594 157.113281 C 140.507812 156.796875 140.316406 156.480469 140.085938 156.167969 C 129.65625 142.058594 109.964844 138.089844 94.828125 147.035156 C 79.429688 156.132812 74.335938 175.410156 81.492188 191.335938 C 82.421875 193.40625 83.554688 195.3125 84.847656 197.058594 C 87.902344 201.195312 91.875 204.410156 96.347656 206.652344 C 106.253906 211.609375 118.597656 211.777344 128.777344 206.476562 C 139.386719 200.957031 145.542969 190.234375 146.421875 179.035156 C 146.828125 173.808594 146.085938 168.480469 144.109375 163.519531 C 143.316406 161.535156 142.339844 159.605469 141.144531 157.769531 Z M 122.539062 193.566406 C 112.289062 199.703125 99.902344 195.070312 94.4375 185.082031 C 89.511719 176.089844 93.78125 165.464844 101.421875 159.722656 C 110.378906 152.988281 122.464844 157.070312 128.78125 165.007812 C 134.554688 174.835938 132.960938 187.328125 122.539062 193.566406 Z M 122.539062 193.566406 " fill-opacity="1" fill-rule="nonzero"/></g></g></g></g><g clip-path="url(#9f25136df0)"><g clip-path="url(#e588eeccf6)"><g clip-path="url(#c11ded5f43)"><g clip-path="url(#fdb6a5fd88)"><path fill="#ffffff" d="M 285.546875 168.164062 C 285.175781 167.878906 284.800781 167.644531 284.429688 167.445312 C 284.40625 167.433594 284.386719 167.417969 284.367188 167.40625 C 268.546875 157.59375 248.515625 161.664062 237.386719 176.742188 C 234.816406 180.230469 233.113281 184.054688 232.183594 188.003906 C 231.035156 192.898438 231.078125 197.984375 232.15625 202.863281 C 234.078125 211.601562 239.300781 219.691406 246.882812 224.863281 C 261.917969 235.121094 281.710938 230.28125 292.886719 216.925781 C 302.171875 205.828125 301.71875 190.734375 295.003906 179.058594 C 292.828125 175.265625 289.988281 171.835938 286.609375 169.015625 C 286.289062 168.71875 285.941406 168.429688 285.546875 168.164062 Z M 281.851562 207.746094 C 276.363281 216 264.652344 218.261719 256.140625 213.695312 C 246.273438 208.40625 242.96875 195.828125 248.386719 186.160156 C 254.324219 175.5625 267.9375 173.625 277.519531 180.078125 C 286.324219 186.859375 287.898438 198.644531 281.851562 207.746094 Z M 281.851562 207.746094 " fill-opacity="1" fill-rule="nonzero"/></g></g></g></g><g clip-path="url(#84e79b221c)"><g clip-path="url(#c91bd2fa5f)"><g clip-path="url(#0b36cc4b00)"><g clip-path="url(#f6f6ce8897)"><path fill="#ffffff" d="M 369.433594 31.015625 C 361.148438 15.027344 341.523438 9.410156 325.414062 16.015625 C 325.054688 16.140625 324.6875 16.285156 324.316406 16.476562 C 323.941406 16.648438 323.601562 16.839844 323.285156 17.042969 C 307.484375 25.851562 301.199219 44.003906 307.664062 60.867188 C 310.496094 68.242188 315.890625 73.765625 322.425781 77.207031 C 326.6875 79.457031 331.441406 80.8125 336.285156 81.214844 C 343.332031 81.800781 350.578125 80.363281 356.808594 76.683594 C 372.597656 67.351562 377.726562 47.011719 369.433594 31.015625 Z M 350.214844 63.996094 C 339.789062 71.832031 325.417969 65.304688 320.613281 54.609375 C 316.316406 45.039062 321.746094 33.953125 330.558594 29.390625 C 340.015625 25.140625 351.140625 28.222656 356.488281 37.269531 C 362.039062 46.648438 358.550781 57.726562 350.214844 63.996094 Z M 350.214844 63.996094 " fill-opacity="1" fill-rule="nonzero"/></g></g></g></g></svg>