<?xml version="1.0" standalone="no"?>
<!DOCTYPE svg PUBLIC "-//W3C//DTD SVG 20010904//EN"
 "http://www.w3.org/TR/2001/REC-SVG-20010904/DTD/svg10.dtd">
<svg version="1.0" xmlns="http://www.w3.org/2000/svg"
 width="700.000000pt" height="700.000000pt" viewBox="0 0 700.000000 700.000000"
 preserveAspectRatio="xMidYMid meet">
<metadata>
Created by potrace 1.14, written by Peter Selinger 2001-2017
</metadata>
<g transform="translate(0.000000,700.000000) scale(0.100000,-0.100000)"
fill="#000000" stroke="none">
<path d="M0 3500 l0 -3500 3500 0 3500 0 0 3500 0 3500 -3500 0 -3500 0 0
-3500z m6494 3230 c220 -56 387 -217 452 -435 25 -83 25 -267 0 -350 -44 -146
-157 -297 -275 -369 -85 -52 -196 -86 -305 -93 l-93 -6 -382 -910 -382 -910
30 -66 c66 -146 77 -319 27 -462 -100 -288 -444 -479 -746 -415 -151 32 -296
132 -383 264 -43 66 -97 185 -97 216 0 10 -18 21 -52 30 -29 9 -213 60 -408
115 -735 205 -1116 312 -1132 317 -14 4 -18 -1 -18 -21 0 -15 -7 -55 -16 -89
-45 -176 -168 -330 -324 -404 -178 -83 -338 -92 -524 -27 -39 13 -71 23 -71
22 -1 -1 -171 -402 -377 -892 l-375 -890 58 -53 c92 -84 153 -184 178 -290 69
-295 -44 -598 -269 -716 -121 -64 -172 -78 -310 -83 -148 -6 -224 8 -340 64
-98 47 -203 150 -248 243 -95 195 -95 435 -1 628 33 69 119 167 184 212 104
72 277 116 416 107 l88 -6 34 82 c19 45 195 463 391 929 l356 847 -34 63 c-59
109 -81 196 -80 328 1 99 5 127 29 200 90 263 323 430 601 430 185 0 324 -57
449 -184 49 -49 93 -105 113 -143 25 -48 39 -64 65 -72 76 -24 1610 -451 1611
-449 1 2 10 30 21 63 54 164 220 322 405 386 46 16 96 24 173 27 125 5 215
-12 311 -59 33 -17 63 -26 67 -22 10 11 699 1653 699 1667 0 6 -16 20 -36 31
-51 27 -136 112 -178 177 -58 92 -88 195 -94 323 -5 133 9 202 69 324 77 156
246 290 412 326 93 20 221 18 311 -5z"/>
<path d="M6260 6479 c-216 -44 -355 -283 -280 -482 25 -67 108 -162 175 -201
104 -61 231 -69 331 -21 65 32 147 119 182 192 24 51 27 70 27 158 0 89 -3
106 -27 151 -35 66 -70 108 -122 143 -77 53 -197 79 -286 60z"/>
<path d="M2000 4071 c-134 -44 -243 -170 -271 -313 -30 -157 81 -335 248 -398
48 -18 73 -21 143 -18 73 3 94 9 148 38 124 66 193 178 194 315 0 123 -32 204
-107 274 -71 65 -162 104 -254 107 -42 2 -87 0 -101 -5z"/>
<path d="M4860 3694 c-109 -29 -189 -98 -239 -203 -22 -48 -26 -69 -26 -151 0
-83 4 -103 28 -155 36 -76 95 -138 172 -178 55 -29 68 -31 160 -32 89 0 107 3
162 29 185 85 264 317 171 502 -49 100 -141 169 -256 193 -68 14 -104 13 -172
-5z"/>
<path d="M545 1169 c-98 -34 -179 -100 -223 -184 -23 -43 -27 -62 -27 -140 0
-86 2 -94 39 -163 73 -136 183 -205 326 -204 93 0 172 28 243 86 124 100 164
252 110 411 -24 71 -118 164 -196 193 -77 29 -189 29 -272 1z"/>
</g>
</svg>
